<svg width="128" height="128" viewBox="0 0 128 128" fill="none" xmlns="http://www.w3.org/2000/svg">
<g clip-path="url(#clip0_36_356)">
<path d="M57.1221 0.502231C49.2467 1.32763 39.676 4.5742 32.6757 8.7012C15.6672 18.7711 4.3464 35.7193 1.44784 55.4738C0.244659 63.8929 1.55722 77.4295 4.29171 84.9131C6.36992 90.4158 8.83096 95.093 9.81538 95.093C11.1279 95.093 11.0732 94.7629 8.88565 90.0306C-1.50542 67.3596 2.86977 40.0664 19.933 21.9076C42.0824 -1.75386 78.0683 -4.06498 103.499 16.46C105.741 18.2758 108.093 20.4219 108.749 21.2473L109.898 22.733L103.116 23.0081C97.6472 23.2282 96.3894 23.4483 96.3894 24.1087C96.3894 24.824 97.6472 24.9341 104.593 24.9341H112.796L112.96 16.46C113.07 10.7372 112.906 7.76575 112.468 7.27051C111.265 5.78479 110.882 7.16045 110.882 13.1584C110.882 16.46 110.718 19.1563 110.554 19.1563C110.39 19.1563 108.64 17.7806 106.726 16.1298C96.1706 7.10543 84.5217 1.98795 71.2321 0.447204C65.7084 -0.158089 63.302 -0.158089 57.1221 0.502231Z" fill="black"/>
<path d="M117.773 32.3077C117.609 32.5278 118.156 34.1236 119.031 35.7194C124.992 46.9448 127.234 62.8475 124.609 76.1089C118.538 107.309 89.5528 128.769 58.2156 125.413C44.4337 123.927 32.566 118.424 22.7765 109.015L18.292 104.723L24.2532 104.448C29.7768 104.173 30.2144 104.062 30.2144 103.072C30.2144 102.026 29.7768 101.971 23.3781 101.806C13.0964 101.586 14.0262 100.651 14.1902 111.216C14.3543 118.7 14.4637 120.13 15.1747 120.13C15.8309 120.13 15.995 118.92 16.1591 113.362C16.2138 109.675 16.4325 106.649 16.5966 106.649C16.7607 106.649 18.456 108.134 20.3155 109.95C25.0188 114.573 29.3393 117.709 35.4099 120.846C44.5431 125.633 51.5981 127.504 62.4814 127.944C79.4352 128.659 95.6781 122.496 108.147 110.721C115.257 103.952 120.671 95.6984 124.171 86.2889C127.234 78.0349 128 73.4677 128 63.7279C127.945 56.0242 127.781 54.5385 126.304 48.7607C123.679 38.5808 119.195 29.9416 117.773 32.3077Z" fill="black"/>
<path d="M87 46.5C87 42.3579 90.3579 39 94.5 39V39C98.6421 39 102 42.3579 102 46.5V95H87V46.5Z" fill="black"/>
<path d="M45 50.5C45 46.3579 48.3579 43 52.5 43V43C56.6421 43 60 46.3579 60 50.5V95H45V50.5Z" fill="black"/>
<path d="M66 62.5C66 58.3579 69.3579 55 73.5 55V55C77.6421 55 81 58.3579 81 62.5V95H66V62.5Z" fill="black"/>
<path d="M24 62.5C24 58.3579 27.3579 55 31.5 55V55C35.6421 55 39 58.3579 39 62.5V95H24V62.5Z" fill="black"/>
<path d="M42.704 32.848C42.704 28.784 36.816 30.352 36.816 27.84C36.816 26.768 37.632 26.256 38.688 26.288C39.84 26.32 40.496 27.008 40.56 27.76H42.576C42.416 25.856 40.912 24.736 38.784 24.736C36.512 24.736 34.96 25.952 34.96 27.904C34.96 32 40.864 30.256 40.864 32.944C40.864 33.888 40.144 34.576 38.864 34.576C37.6 34.576 36.96 33.84 36.88 32.928H34.928C34.928 34.896 36.64 36.112 38.864 36.112C41.344 36.112 42.704 34.512 42.704 32.848ZM55.6083 30.416C55.6083 27.088 53.0963 24.736 49.9283 24.736C46.7923 24.736 44.2483 27.088 44.2483 30.416C44.2483 33.76 46.7923 36.112 49.9283 36.112C53.0963 36.112 55.6083 33.76 55.6083 30.416ZM46.1203 30.416C46.1203 27.904 47.7203 26.336 49.9283 26.336C52.1363 26.336 53.7363 27.904 53.7363 30.416C53.7363 32.928 52.1363 34.528 49.9283 34.528C47.7203 34.528 46.1203 32.928 46.1203 30.416ZM57.4031 24.88V36H62.9871V34.528H59.2271V24.88H57.4031ZM68.8645 34.128L65.5685 24.88H63.6165L67.8085 36H69.9205L74.0965 24.88H72.1765L68.8645 34.128ZM81.7659 24.864H75.6219V36H81.7659V34.512H77.4459V31.104H81.2859V29.616H77.4459V26.352H81.7659V24.864ZM87.6445 24.88H84.0125V36H87.6445C91.2125 36 93.5485 33.904 93.5485 30.48C93.5485 27.04 91.2125 24.88 87.6445 24.88ZM85.8365 34.512V26.368H87.6445C90.2685 26.368 91.6765 27.936 91.6765 30.48C91.6765 33.008 90.2685 34.512 87.6445 34.512H85.8365Z" fill="black"/>
</g>
<defs>
<clipPath id="clip0_36_356">
<rect width="128" height="128" fill="white"/>
</clipPath>
</defs>
</svg>
