<svg width="128" height="128" viewBox="0 0 128 128" fill="none" xmlns="http://www.w3.org/2000/svg">
<g clip-path="url(#clip0_1_25)">
<rect x="27.2126" y="22.1732" width="40.315" height="5.03937" rx="2.51969" fill="#89A7D7"/>
<rect x="36.2834" y="43.3386" width="45.3543" height="5.03937" rx="2.51969" fill="#89A7D7"/>
<rect x="13.1024" y="43.3386" width="19.1496" height="5.03937" rx="2.51969" fill="#89A7D7"/>
<rect x="36.2834" y="58.4567" width="45.3543" height="5.03937" rx="2.51969" fill="#89A7D7"/>
<rect x="13.1024" y="58.4567" width="19.1496" height="5.03937" rx="2.51969" fill="#89A7D7"/>
<rect x="36.2834" y="71.5591" width="45.3543" height="5.03937" rx="2.51969" fill="#89A7D7"/>
<rect x="13.1024" y="71.5591" width="19.1496" height="5.03937" rx="2.51969" fill="#89A7D7"/>
<path fill-rule="evenodd" clip-rule="evenodd" d="M83.7323 5H10C7.23858 5 5 7.23858 5 10V105.906C5 108.667 7.23858 110.906 10 110.906H78.9373C78.0743 108.363 77.6063 105.638 77.6063 102.803C77.6063 94.0984 82.0204 86.4247 88.7323 81.8981V10C88.7323 7.23858 86.4937 5 83.7323 5ZM10 115.906H81.2766C85.7004 123.158 93.6863 128 102.803 128C116.719 128 128 116.719 128 102.803C128 88.8873 116.719 77.6063 102.803 77.6063C99.6054 77.6063 96.5468 78.202 93.7323 79.2884V10C93.7323 4.47715 89.2551 0 83.7323 0H10C4.47715 0 0 4.47715 0 10V105.906C0 111.428 4.47716 115.906 10 115.906ZM102.803 123.969C114.492 123.969 123.969 114.492 123.969 102.803C123.969 91.1138 114.492 81.6378 102.803 81.6378C91.1138 81.6378 81.6378 91.1138 81.6378 102.803C81.6378 114.492 91.1138 123.969 102.803 123.969Z" fill="#89A7D7"/>
<path d="M100.361 91.9114C100.086 92.0364 99.6375 92.3864 99.3633 92.6865C98.8897 93.2115 98.8647 93.6365 98.7899 100.162C98.7401 106.662 98.765 107.112 99.2137 107.862C99.9616 109.062 100.984 109.237 107.017 109.137L112.252 109.062L112.975 108.237C113.897 107.212 113.947 106.012 113.1 105.012L112.501 104.312L108.163 104.187L103.851 104.062L103.726 98.4367C103.651 95.3365 103.551 92.7865 103.527 92.7365C103.502 92.7115 103.103 92.4614 102.679 92.1864C101.806 91.6614 101.183 91.5864 100.361 91.9114Z" fill="#89A7D7"/>
</g>
<defs>
<clipPath id="clip0_1_25">
<rect width="128" height="128" fill="white"/>
</clipPath>
</defs>
</svg>
