<svg width="128" height="128" viewBox="0 0 128 128" fill="none" xmlns="http://www.w3.org/2000/svg">
<g clip-path="url(#clip0_32_754)">
<path fill-rule="evenodd" clip-rule="evenodd" d="M70.7299 34.443C72.17 33.5794 73.637 32.6997 75.2048 32.2499C69.1577 18.9247 79.6709 3.27833 93.4036 0.377629C104.997 -2.07128 116.709 4.087 121.519 14.4999C129.513 31.8087 113.886 50.0342 95.4541 48.2077C91.4089 47.8069 87.4867 46.2612 84.176 43.9909C83.7919 43.7275 83.2652 43.2107 82.6838 42.6402C81.5178 41.4961 80.1317 40.136 79.2329 40.1692C77.8445 40.2206 75.8966 41.5214 74.293 42.5923C73.6739 43.0057 73.1061 43.3849 72.6416 43.6447C69.0036 45.6789 65.3566 47.6972 61.7093 49.7156L61.7047 49.7182C60.1383 50.5851 58.5718 51.452 57.0061 52.3202C56.6443 52.5207 56.0911 52.7683 55.4568 53.0521C53.5492 53.9056 50.909 55.087 50.5437 56.3032C50.3364 56.9937 50.6449 58.0225 50.9243 58.9541L50.9243 58.9541C51.0673 59.431 51.2027 59.8825 51.2573 60.2499C51.6351 62.7937 51.6351 65.2062 51.2573 67.7499C51.2099 68.0689 51.0845 68.4915 50.9479 68.9517L50.9479 68.9519L50.9479 68.952C50.637 69.9995 50.2683 71.2421 50.6291 71.9024C51.3015 73.1331 53.7159 74.2084 55.5958 75.0455C56.247 75.3356 56.8341 75.597 57.2624 75.8264C61.5289 78.112 65.7535 80.4862 69.9737 82.8579L69.9743 82.8582C70.9489 83.406 71.9233 83.9536 72.8979 84.4999C73.3376 84.7464 73.8785 85.1077 74.4694 85.5025C76.0056 86.5288 77.8804 87.7812 79.1973 87.8307C80.033 87.8619 81.0808 86.7713 81.9381 85.8789L81.9382 85.8787L81.9386 85.8783C82.3016 85.5005 82.6303 85.1583 82.8944 84.9519C85.3982 82.9952 88.2615 81.4709 91.353 80.6067C105.756 76.5807 122.291 85.9689 123.37 101.25C123.675 105.566 123.223 110.065 121.276 114C116.275 124.109 104.832 130.036 93.4036 127.622C79.6709 124.722 69.1577 109.075 75.2048 95.7499C73.3424 95.2156 71.5575 94.1266 69.8298 93.0725C69.1349 92.6486 68.4492 92.2302 67.7715 91.8559L53.6739 84.0702C53.0642 83.7321 52.3655 83.2665 51.6231 82.7718C49.8736 81.606 47.8815 80.2786 46.2409 80.0779C45.4114 79.9764 44.7257 80.7051 44.1384 81.3294L44.1383 81.3295C43.9692 81.5093 43.8082 81.6803 43.6543 81.8204C41.8562 83.4569 39.7544 84.8894 37.5257 85.9199C29.9425 89.4262 20.562 89.0099 13.4316 84.6402C-3.64536 74.1747 -1.02703 48.6729 17.5327 41.3632C23.8943 38.8577 31.6554 39.2144 37.782 42.2022C39.9013 43.2354 41.927 44.5802 43.6338 46.1794C43.7761 46.3128 43.9251 46.4715 44.0816 46.6381C44.679 47.2746 45.3848 48.0263 46.2406 47.9219C47.881 47.722 49.8742 46.3937 51.6242 45.2275C52.3663 44.7329 53.0647 44.2675 53.6739 43.9297C55.2813 43.0383 56.8849 42.138 58.4888 41.2374L58.4892 41.2372L58.4895 41.237C61.9102 39.3165 65.3325 37.395 68.7968 35.5577C69.4402 35.2164 70.0823 34.8314 70.7299 34.443ZM98.5307 43C109.289 43 118.011 34.4934 118.011 24C118.011 13.5066 109.289 5 98.5307 5C87.772 5 79.0503 13.5066 79.0503 24C79.0503 34.4934 87.772 43 98.5307 43ZM46.2413 64C46.2413 74.4934 37.5197 83 26.761 83C16.0023 83 7.2806 74.4934 7.2806 64C7.2806 53.5066 16.0023 45 26.761 45C37.5197 45 46.2413 53.5066 46.2413 64ZM98.5307 123C109.289 123 118.011 114.493 118.011 104C118.011 93.5066 109.289 85 98.5307 85C87.772 85 79.0503 93.5066 79.0503 104C79.0503 114.493 87.772 123 98.5307 123Z" fill="#02D7C3"/>
</g>
<defs>
<clipPath id="clip0_32_754">
<rect width="128" height="128" fill="white"/>
</clipPath>
</defs>
</svg>
