<svg width="128" height="128" viewBox="0 0 128 128" fill="none" xmlns="http://www.w3.org/2000/svg">
<path d="M109.853 35.5462V118.795C109.853 123.267 106.216 126.903 101.744 126.903H26.8254C22.3534 126.903 18.7168 123.267 18.7168 118.795V9.20553C18.7168 4.73351 22.3534 1.09692 26.8254 1.09692H75.3788L109.853 35.5462Z" fill="#F5B912"/>
<path d="M81.055 58.4714H48.0063C44.9349 58.4714 42.4531 60.9532 42.4531 64.0246V97.0733C42.4531 100.145 44.9349 102.626 48.0063 102.626H81.055C84.1264 102.626 86.6082 100.145 86.6082 97.0733V64C86.6082 60.9532 84.1264 58.4714 81.055 58.4714ZM80.883 92.7487H48.2029V70.5115H80.883V92.7487Z" fill="white"/>
<path opacity="0.19" d="M80.0703 34.121L109.826 58.2257V35.5707L92.9458 25.7913L80.0703 34.121Z" fill="black"/>
<path d="M110 35.5462H83.6594C79.1874 35.5462 75.5508 31.9096 75.5508 27.4376V1.09692L110 35.5462Z" fill="#FADC87"/>
</svg>
